<svg id="Lager_1" data-name="Lager 1" xmlns="http://www.w3.org/2000/svg" xmlns:xlink="http://www.w3.org/1999/xlink" viewBox="0 0 419.44 82.55"><defs><style>.cls-1{fill:url(#Namnlös_övertoning_18);}</style><linearGradient id="Namnlös_övertoning_18" x1="0.07" y1="41.28" x2="419.51" y2="41.28" gradientUnits="userSpaceOnUse"><stop offset="0" stop-color="#01998e"/><stop offset="1" stop-color="#fefe67"/></linearGradient></defs><title>LogoFade</title><path class="cls-1" d="M6.12,32.32a1.25,1.25,0,0,0,.85-.9C7.91,29,8.9,26.68,9.91,24.33a1.17,1.17,0,0,0,0-1.17,9.41,9.41,0,0,1,12.76-12.7.91.91,0,0,0,1,0A35.55,35.55,0,0,1,31,7.4a1.09,1.09,0,0,0,.7-.61,9.45,9.45,0,0,1,18.13,0,1.15,1.15,0,0,0,.63.63,38.26,38.26,0,0,1,7.43,3.07,1.12,1.12,0,0,0,.88,0,9.44,9.44,0,0,1,12.8,3.78,9.17,9.17,0,0,1,.93,2.48,9.08,9.08,0,0,1-.87,6.42,1.06,1.06,0,0,0,0,1.18,32.12,32.12,0,0,1,3,7.16,1,1,0,0,0,.77.8,9.41,9.41,0,0,1,0,18,1.07,1.07,0,0,0-.82.85,32.52,32.52,0,0,1-3,7.15,1,1,0,0,0,0,1.12A9.41,9.41,0,0,1,58.89,72.14a1,1,0,0,0-1,0,32.57,32.57,0,0,1-7.28,3,1,1,0,0,0-.76.73,9.4,9.4,0,0,1-18,0,1,1,0,0,0-.75-.74,32.66,32.66,0,0,1-7.23-3,1.1,1.1,0,0,0-1.18,0,9.42,9.42,0,0,1-13.86-8.5A8.88,8.88,0,0,1,10,59.36a.87.87,0,0,0,0-1A32.06,32.06,0,0,1,7,51a1,1,0,0,0-.75-.73,9.61,9.61,0,0,1-6.18-9A9.33,9.33,0,0,1,6.12,32.32Zm59.73-4.41h-.29A9.36,9.36,0,0,1,54.12,16.79c.09-.41-.06-.57-.39-.71-1.35-.55-2.7-1.11-4-1.69-.51-.22-.78-.12-1.1.35A9,9,0,0,1,40.8,19a9.22,9.22,0,0,1-7.88-4.29c-.13-.18-.48-.42-.62-.37-1.66.61-3.29,1.27-4.91,1.91.8,3.65.14,6.77-2.42,9.32s-5.69,3.18-9.28,2.4c-.61,1.51-1.2,3-1.83,4.52-.22.52-.09.77.36,1.09a9.37,9.37,0,0,1,0,15.65c-.42.28-.55.5-.34,1,.56,1.32,1.1,2.65,1.63,4,.19.48.44.6,1,.49A9.3,9.3,0,0,1,27,60.2a9.86,9.86,0,0,1,.34,6.21l5.17,2.13c2-3.15,4.7-4.86,8.32-4.85s6.27,1.78,8.23,4.87l4.65-2c.42-.17.46-.41.37-.84a9,9,0,0,1,0-4.06,9.33,9.33,0,0,1,11.11-7.07c.46.1.73,0,.89-.41.1-.26.27-.51.38-.77.53-1.3,1-2.6,1.55-3.87-3.12-2-4.83-4.66-4.83-8.24A9.37,9.37,0,0,1,68,33.06c-.34-.9-.64-1.81-1-2.69S66.22,28.72,65.85,27.91Zm6.72,16.82a3.4,3.4,0,0,0,3.48-3.32v0a3.44,3.44,0,1,0-3.52,3.36Zm-63.64,0a3.44,3.44,0,1,0,0-6.88h0a3.44,3.44,0,0,0,0,6.88ZM40.78,76.56a3.41,3.41,0,0,0,3.44-3.38v0a3.44,3.44,0,1,0-3.47,3.41ZM14.84,18.79a3.44,3.44,0,1,0,3.49-3.39h0A3.47,3.47,0,0,0,14.84,18.79ZM44.22,9.45a3.44,3.44,0,1,0-3.43,3.45h0A3.46,3.46,0,0,0,44.22,9.45Zm22.5,9.34a3.43,3.43,0,1,0-3.39,3.47h0a3.42,3.42,0,0,0,3.38-3.46ZM18.31,67.24a3.43,3.43,0,1,0-3.47-3.39h0A3.45,3.45,0,0,0,18.31,67.24Zm48.41-3.45a3.43,3.43,0,1,0-3.44,3.42h0a3.39,3.39,0,0,0,3.42-3.36ZM280.51,30.27V8.79H290v.76c0,13-.08,26,0,39A25.3,25.3,0,0,1,271.65,73c-15.06,3.92-27.37-5.12-30.93-16.54a25.42,25.42,0,0,1,7.83-27.19c8.6-7.55,22.76-7.64,31.43.57ZM264.72,64.55A15.74,15.74,0,1,0,249,48.79,15.74,15.74,0,0,0,264.72,64.55Zm-33.37,8.52h-9.41V67.33l-1.35,1.14a23.76,23.76,0,0,1-18.34,5.24C191.59,72.59,182.74,63,181.25,53c-1.86-12.74,4.82-22.32,14-27a23.44,23.44,0,0,1,13.88-2.24c9.82,1.26,16.44,6.81,20.46,15.65a22.5,22.5,0,0,1,1.78,9.41v23.6C231.38,72.66,231.36,72.79,231.35,73.07ZM206.1,64.55a15.74,15.74,0,1,0-15.69-15.79v0A15.76,15.76,0,0,0,206.1,64.55Zm-35.42,8.52h-9.4V45a11.33,11.33,0,0,0-7.23-11c-8.47-3.68-16.32,3.34-16.35,10.4V73h-9.37V8.79h9.36v20.1c.91-.69,1.7-1.33,2.53-1.91a18.86,18.86,0,0,1,25.25,3.41A22.06,22.06,0,0,1,170.76,45V72.44A4.27,4.27,0,0,0,170.68,73.07Zm223.48.84C380.1,74.05,369,62.12,369,48.79c0-13.64,11.74-25.22,25.33-25.18,13.35,0,25.21,11.47,25.18,25.29C419.45,62.44,408,74.1,394.16,73.91Zm.08-9.36a15.74,15.74,0,1,0-15.76-15.72h0A15.74,15.74,0,0,0,394.24,64.55Zm-82.72,8.52h-9.33V8.79h9.33Zm37.9-48.63h9.32V73.06h-9.32ZM100.59,0h1.5V82.56h-1.5ZM358.76,8.79v9.3h-9.35V8.79Zm-33,64.28V63.79h9.36v9.26Z" transform="translate(-0.07 -0.01)"/></svg>